<svg xmlns="http://www.w3.org/2000/svg" width="2191" height="745" viewBox="0 0 2191 745" version="1.1"><path d="M 143.500 3 C 143.160 3.550, 141.949 4, 140.809 4 C 138.516 4, 133.165 6.989, 128.398 10.933 C 126.691 12.345, 123.949 14.227, 122.302 15.115 C 118.450 17.193, 111.959 27.866, 111.243 33.298 C 110.939 35.609, 110.086 38.431, 109.349 39.569 C 108.611 40.707, 107.616 43.632, 107.138 46.069 C 106.660 48.506, 104.881 55.225, 103.185 61 C 101.489 66.775, 99.575 74.200, 98.931 77.500 C 98.286 80.800, 97.193 85.300, 96.502 87.500 C 94.600 93.550, 93 100.760, 93 103.279 C 93 104.517, 92.080 107.247, 90.955 109.346 C 88.918 113.146, 87.771 117.537, 86.082 128 C 85.593 131.025, 84.514 135.300, 83.682 137.500 C 80.453 146.043, 79.037 150.725, 77.934 156.500 C 77.305 159.800, 75.712 165.031, 74.395 168.125 C 73.078 171.219, 72 174.767, 72 176.009 C 72 177.251, 71.582 179.895, 71.070 181.884 C 70.559 183.873, 69.609 188.200, 68.960 191.500 C 68.310 194.800, 67.153 199.197, 66.389 201.270 C 65.625 203.344, 65 206.110, 65 207.417 C 65 208.724, 63.625 213.102, 61.944 217.146 C 60.263 221.191, 58.461 226.975, 57.940 230 C 57.418 233.025, 56.630 237.525, 56.188 240 C 55.746 242.475, 54.625 245.656, 53.696 247.069 C 52.085 249.520, 51.131 253.141, 49.059 264.675 C 48.548 267.521, 47.476 271.121, 46.678 272.675 C 44.968 276.004, 41.998 287.223, 42.004 290.331 C 42.006 291.524, 40.919 296.100, 39.589 300.500 C 38.258 304.900, 36.381 311.875, 35.417 316 C 34.453 320.125, 33.036 324.478, 32.267 325.674 C 31.499 326.870, 30.447 330.470, 29.930 333.674 C 27.917 346.164, 27.327 348.588, 25.703 351.059 C 24.778 352.466, 23.517 356.066, 22.901 359.059 C 20.869 368.929, 20.010 373.439, 19.195 378.500 C 18.753 381.250, 17.629 384.656, 16.699 386.069 C 15.010 388.634, 13.759 393.521, 12.081 404.109 C 11.592 407.194, 10.012 412.212, 8.570 415.260 C 3.844 425.250, 4.989 466, 9.996 466 C 10.600 466, 13.120 467.997, 15.595 470.437 C 27.593 482.265, 25.341 482, 113.789 482 C 193.060 482, 193.060 482, 198.962 479.516 C 212.347 473.882, 219.908 465.556, 224.440 451.458 C 226.024 446.531, 227.923 440.803, 228.660 438.730 C 229.397 436.656, 230.020 433.731, 230.044 432.230 C 230.109 428.206, 232.282 420.876, 234.299 417.877 C 235.915 415.476, 236.913 411.410, 238.934 399 C 239.337 396.525, 241.091 390.312, 242.833 385.193 C 244.575 380.074, 246 374.952, 246 373.809 C 246 371.819, 246.509 369.602, 249.512 358.500 C 255.652 335.806, 237.823 338, 416.068 338 C 576.784 338, 576.784 338, 574.892 341.711 C 573.851 343.753, 573 346.221, 573 347.197 C 573 348.173, 572.576 350.890, 572.057 353.236 C 571.538 355.581, 570.591 359.975, 569.953 363 C 569.315 366.025, 568.190 370.525, 567.453 373 C 566.716 375.475, 565.127 381.100, 563.921 385.500 C 562.714 389.900, 561.157 395.300, 560.459 397.500 C 559.761 399.700, 558.638 404.200, 557.963 407.500 C 556.819 413.096, 555.745 416.819, 551.618 429.500 C 545.449 448.450, 555.069 469.186, 574.325 478.448 C 587.337 484.706, 921.239 483.424, 932 477.075 C 948.488 467.346, 952.060 461.704, 957.053 437.500 C 958.075 432.545, 958.871 429.509, 962.952 415 C 964.113 410.875, 965.692 405.250, 966.461 402.500 C 967.231 399.750, 968.388 395.025, 969.034 392 C 970.505 385.104, 972.832 377.703, 975.184 372.434 C 976.183 370.198, 977 367.233, 977 365.844 C 977 363.238, 979.806 351.901, 982.406 344 C 983.221 341.525, 984.363 337.137, 984.944 334.250 C 987.230 322.885, 988.260 318.409, 989.079 316.277 C 989.549 315.054, 991.071 309.654, 992.463 304.277 C 993.855 298.900, 995.655 292.250, 996.463 289.500 C 997.271 286.750, 998.491 281.688, 999.173 278.250 C 999.855 274.813, 1000.754 272, 1001.171 272 C 1002.603 272, 1004.232 267.694, 1005.106 261.600 C 1006.743 250.184, 1007.870 245.505, 1009.936 241.539 C 1011.071 239.360, 1012 236.554, 1012 235.303 C 1012 233.049, 1012.609 230.092, 1015.464 218.500 C 1016.276 215.200, 1017.434 210.475, 1018.036 208 C 1022.174 190.990, 1014.917 192.528, 1092.351 192.243 C 1162.055 191.986, 1162.055 191.986, 1160.462 194.417 C 1159.586 195.754, 1158.410 199.695, 1157.849 203.174 C 1155.745 216.218, 1155.194 218.624, 1153.194 223.500 C 1152.067 226.250, 1150.618 231.200, 1149.975 234.500 C 1149.332 237.800, 1148.188 242.975, 1147.432 246 C 1146.677 249.025, 1145.559 253.525, 1144.949 256 C 1144.338 258.475, 1143.392 261.850, 1142.845 263.500 C 1139.040 274.991, 1136.898 282.555, 1135.481 289.500 C 1134.584 293.900, 1133.202 299.075, 1132.412 301 C 1130.431 305.821, 1128.007 315.536, 1127.969 318.799 C 1127.952 320.284, 1126.831 323.750, 1125.478 326.500 C 1124.125 329.250, 1123.014 332.445, 1123.009 333.601 C 1123.004 334.756, 1122.599 337.006, 1122.108 338.601 C 1121.617 340.195, 1120.683 344.200, 1120.033 347.500 C 1118.565 354.947, 1116.689 361.650, 1112.477 374.500 C 1110.675 380, 1108.944 386.075, 1108.631 388 C 1107.624 394.192, 1105.218 403.340, 1102.976 409.500 C 1101.775 412.800, 1100.352 418.200, 1099.815 421.500 C 1099.278 424.800, 1098.365 429.975, 1097.785 433 C 1095.994 442.344, 1097.248 455.677, 1100.366 460.435 C 1105.976 468.998, 1112.921 475.012, 1122.351 479.473 C 1127.693 482, 1127.693 482, 1376.124 482 C 1624.554 482, 1624.554 482, 1627.592 484.775 C 1629.263 486.301, 1633.301 488.373, 1636.565 489.380 C 1639.829 490.386, 1644.750 492.120, 1647.500 493.232 C 1656.482 496.865, 1668.327 501.074, 1677.500 503.893 C 1682.450 505.414, 1688.525 507.559, 1691 508.659 C 1693.475 509.759, 1698.650 511.621, 1702.500 512.795 C 1706.350 513.970, 1711.283 515.847, 1713.461 516.966 C 1715.640 518.085, 1718.224 519, 1719.202 519 C 1720.181 519, 1725.148 520.611, 1730.241 522.581 C 1735.333 524.551, 1741.300 526.769, 1743.500 527.510 C 1745.700 528.252, 1753.350 530.951, 1760.500 533.509 C 1767.650 536.067, 1776.614 539.047, 1780.420 540.131 C 1784.225 541.215, 1789.625 543.155, 1792.420 544.442 C 1795.214 545.729, 1798.085 546.951, 1798.801 547.158 C 1799.992 547.502, 1802.959 554.939, 1808.111 570.500 C 1809.204 573.800, 1811.426 579.875, 1813.049 584 C 1814.673 588.125, 1817.073 595.211, 1818.383 599.746 C 1819.693 604.282, 1821.415 609.007, 1822.209 610.246 C 1823.567 612.365, 1826.776 621.453, 1830.596 634 C 1831.517 637.025, 1832.910 640.764, 1833.692 642.309 C 1834.473 643.854, 1836.468 649.704, 1838.125 655.309 C 1839.782 660.914, 1841.727 666.414, 1842.449 667.532 C 1843.170 668.649, 1844.460 672.024, 1845.315 675.032 C 1848.223 685.262, 1849.332 689.498, 1849.495 691 C 1849.585 691.825, 1849.735 693.288, 1849.829 694.250 C 1849.923 695.212, 1850.904 696.904, 1852.008 698.008 C 1853.113 699.113, 1855.616 703.881, 1857.571 708.604 C 1873.461 746.991, 1925.406 747.711, 1938.287 709.723 C 1939.075 707.400, 1941.470 700.100, 1943.610 693.500 C 1945.749 686.900, 1948.253 680.375, 1949.173 679 C 1950.094 677.625, 1951.781 672.802, 1952.922 668.281 C 1954.064 663.761, 1956.095 657.580, 1957.437 654.546 C 1958.779 651.512, 1960.593 646.211, 1961.470 642.765 C 1962.346 639.319, 1964.623 632.852, 1966.531 628.392 C 1968.439 623.933, 1970 619.554, 1970 618.662 C 1970 617.112, 1971.888 611.919, 1978.058 596.500 C 1981.667 587.480, 1991 559.829, 1991 558.155 C 1991 555.300, 1995.321 547, 1996.807 547 C 1997.666 547, 2000.254 546.087, 2002.559 544.971 C 2007.051 542.797, 2019.536 538.418, 2032.500 534.471 C 2036.900 533.131, 2042.525 531.181, 2045 530.138 C 2047.475 529.094, 2051.975 527.347, 2055 526.255 C 2064.353 522.878, 2074.274 519.357, 2079.500 517.561 C 2082.250 516.615, 2088.775 514.256, 2094 512.318 C 2099.225 510.380, 2112.275 505.747, 2123 502.022 C 2133.725 498.297, 2144.750 494.341, 2147.500 493.230 C 2150.250 492.119, 2155.198 490.377, 2158.496 489.359 C 2161.794 488.341, 2165.251 486.749, 2166.179 485.821 C 2167.107 484.893, 2168.988 483.541, 2170.359 482.817 C 2171.730 482.093, 2174.481 479.363, 2176.472 476.750 C 2178.463 474.137, 2180.544 472, 2181.097 472 C 2184.571 472, 2186.912 440.159, 2184.001 432.502 C 2182.037 427.337, 2172.058 417.461, 2163 411.719 C 2158.203 408.677, 2147.636 404.242, 2141.500 402.693 C 2138.691 401.985, 2124.909 397.125, 2122.500 395.993 C 2119.497 394.583, 2111.833 391.910, 2109 391.284 C 2107.625 390.980, 2105.963 390.308, 2105.306 389.790 C 2104.650 389.272, 2101.950 388.255, 2099.306 387.529 C 2093.819 386.022, 2082.938 382.369, 2078.500 380.545 C 2074.753 379.004, 2070.673 377.591, 2060.500 374.311 C 2056.100 372.892, 2052.072 371.342, 2051.550 370.866 C 2051.027 370.390, 2049.971 370, 2049.201 370 C 2048.432 370, 2046.384 369.392, 2044.651 368.649 C 2037.265 365.483, 2030.355 363, 2028.931 363 C 2028.089 363, 2026.973 362.607, 2026.450 362.126 C 2025.928 361.646, 2021.450 360.006, 2016.500 358.482 C 2011.550 356.957, 2007.072 355.325, 2006.550 354.855 C 2006.027 354.385, 2004.805 354, 2003.834 354 C 1997.066 354, 1992.584 348.208, 1989.521 335.500 C 1988.592 331.650, 1987.265 327.600, 1986.570 326.500 C 1985.118 324.200, 1982.439 315.974, 1981.636 311.346 C 1981.335 309.612, 1979.624 305.112, 1977.834 301.346 C 1974.986 295.355, 1969.394 280.091, 1962.870 260.500 C 1961.771 257.200, 1959.525 250.900, 1957.879 246.500 C 1956.233 242.100, 1953.989 235.175, 1952.893 231.111 C 1951.797 227.047, 1950.068 222.097, 1949.051 220.111 C 1946.077 214.302, 1943.006 206.041, 1940.897 198.176 C 1939.817 194.148, 1937.599 188.487, 1935.967 185.595 C 1932.221 178.958, 1932.239 178.634, 1936.683 173.211 C 1938.709 170.739, 1940.945 166.642, 1941.653 164.108 C 1942.360 161.574, 1943.839 156.350, 1944.940 152.500 C 1946.041 148.650, 1946.955 144.469, 1946.971 143.210 C 1946.987 141.950, 1947.896 139.700, 1948.991 138.210 C 1950.921 135.585, 1952.034 131.492, 1953.945 120 C 1954.448 116.975, 1956.171 110.450, 1957.773 105.500 C 1961.242 94.788, 1963 87.798, 1963 84.721 C 1963 83.483, 1963.918 80.758, 1965.039 78.666 C 1968.197 72.773, 1970.945 58.597, 1971.660 44.500 C 1972.398 29.967, 1967.898 19.692, 1957.846 12.954 C 1955.456 11.352, 1951.824 8.909, 1949.777 7.525 C 1947.729 6.141, 1944.129 4.338, 1941.777 3.519 C 1936.530 1.691, 144.628 1.174, 143.500 3 M 147.614 34.401 C 146.726 36.272, 146 38.442, 146 39.223 C 146 40.004, 145.376 42.636, 144.614 45.072 C 143.852 47.507, 142.452 52.425, 141.504 56 C 140.555 59.575, 139.166 64.750, 138.416 67.500 C 137.666 70.250, 135.639 77.900, 133.913 84.500 C 132.186 91.100, 129.917 99.650, 128.869 103.500 C 127.822 107.350, 126.245 113.200, 125.363 116.500 C 124.482 119.800, 123.194 124.525, 122.500 127 C 121.806 129.475, 120.474 134.425, 119.539 138 C 118.605 141.575, 117.223 146.750, 116.468 149.500 C 115.713 152.250, 114.449 156.975, 113.658 160 C 111.099 169.790, 107.474 183.229, 104.487 194 C 103.800 196.475, 102.531 201.200, 101.666 204.500 C 98.963 214.815, 92.987 237.251, 91.412 243 C 90.583 246.025, 89.498 250.075, 89 252 C 88.006 255.845, 86.141 262.757, 83.199 273.500 C 82.144 277.350, 80.503 283.425, 79.552 287 C 78.601 290.575, 77.163 295.975, 76.355 299 C 74.216 307.013, 72.449 313.640, 70.491 321 C 69.540 324.575, 68.194 329.525, 67.500 332 C 66.806 334.475, 65.484 339.425, 64.561 343 C 62.862 349.586, 61.211 355.752, 58.600 365.257 C 57.808 368.141, 56.386 373.425, 55.439 377 C 54.493 380.575, 52.860 386.650, 51.811 390.500 C 50.761 394.350, 49.490 399.075, 48.986 401 C 48.482 402.925, 46.467 410.316, 44.509 417.424 C 40.008 433.763, 31.591 432.052, 115.043 431.757 C 196.194 431.469, 186.790 435.152, 196.122 400 C 197.801 393.675, 199.784 386.250, 200.529 383.500 C 201.273 380.750, 202.774 375.125, 203.863 371 C 204.953 366.875, 207.055 359, 208.535 353.500 C 210.016 348, 211.824 341.250, 212.555 338.500 C 213.285 335.750, 214.849 329.900, 216.031 325.500 C 217.213 321.100, 218.769 315.250, 219.490 312.500 C 220.211 309.750, 221.527 305.025, 222.413 302 C 223.300 298.975, 224.307 294.925, 224.651 293 C 224.996 291.075, 225.720 288.938, 226.261 288.250 C 227.042 287.258, 264.721 287, 408.671 287 C 607.442 287, 593.847 287.760, 593.978 276.634 C 593.990 275.608, 594.642 272.683, 595.426 270.134 C 596.835 265.554, 598.328 260.181, 601.437 248.500 C 602.315 245.200, 604.184 238.225, 605.589 233 C 606.994 227.775, 608.736 221.250, 609.459 218.500 C 610.654 213.955, 611.911 209.274, 618.190 186 C 622.380 170.468, 623.074 167.875, 624.409 162.755 C 625.163 159.865, 626.772 153.900, 627.986 149.500 C 632.724 132.331, 636.181 119.347, 636.906 116 C 637.323 114.075, 638.160 110.925, 638.767 109 C 639.374 107.075, 640.628 102.575, 641.555 99 C 642.481 95.425, 643.806 90.475, 644.500 88 C 645.194 85.525, 646.540 80.575, 647.491 77 C 648.442 73.425, 649.891 68.025, 650.711 65 C 651.530 61.975, 652.809 57.250, 653.552 54.500 C 654.294 51.750, 655.882 46.038, 657.080 41.807 C 658.278 37.576, 658.989 33.413, 658.660 32.557 C 657.173 28.680, 149.459 30.513, 147.614 34.401 M 695.021 33.750 C 694.306 35.263, 693.358 38.075, 692.915 40 C 691.875 44.518, 689.786 52.466, 687 62.500 C 685.779 66.900, 684.202 72.750, 683.496 75.500 C 682.791 78.250, 681.303 83.875, 680.190 88 C 679.077 92.125, 677.014 99.775, 675.606 105 C 674.197 110.225, 671.633 119.675, 669.908 126 C 666.255 139.395, 664.879 144.558, 662.046 155.500 C 660.147 162.838, 658.153 170.265, 654.529 183.500 C 653.776 186.250, 652.390 191.425, 651.449 195 C 649.708 201.613, 647.732 208.904, 645.487 217 C 644.800 219.475, 643.460 224.425, 642.509 228 C 641.558 231.575, 640.166 236.750, 639.416 239.500 C 638.666 242.250, 636.651 249.900, 634.939 256.500 C 633.227 263.100, 631.029 271.425, 630.054 275 C 629.079 278.575, 627.489 284.425, 626.521 288 C 625.553 291.575, 624.194 296.525, 623.500 299 C 622.806 301.475, 621.474 306.425, 620.539 310 C 618.589 317.461, 616.214 326.144, 614.934 330.500 C 614.448 332.150, 612.715 338.675, 611.082 345 C 609.448 351.325, 607.370 359.200, 606.463 362.500 C 605.556 365.800, 603.564 373.225, 602.035 379 C 600.507 384.775, 598.041 394, 596.555 399.500 C 595.069 405, 593.174 412.200, 592.342 415.500 C 591.511 418.800, 590.175 423.484, 589.374 425.908 C 588.551 428.398, 588.294 430.694, 588.784 431.184 C 589.601 432.001, 733.926 432.407, 734.739 431.594 C 734.948 431.385, 736.261 426.778, 737.655 421.357 C 741.719 405.557, 745.083 392.953, 748.560 380.500 C 749.481 377.200, 750.604 372.925, 751.055 371 C 751.507 369.075, 752.814 364.350, 753.961 360.500 C 755.108 356.650, 756.324 351.925, 756.662 350 C 757.001 348.075, 757.678 345.719, 758.167 344.764 C 758.655 343.810, 759.437 341.110, 759.903 338.764 C 760.369 336.419, 761.756 330.900, 762.986 326.500 C 764.215 322.100, 765.863 316.025, 766.648 313 C 767.433 309.975, 768.690 305.250, 769.442 302.500 C 770.194 299.750, 771.939 293.225, 773.319 288 C 774.699 282.775, 776.815 274.900, 778.021 270.500 C 780.622 261.007, 782.533 253.926, 784.427 246.755 C 785.190 243.865, 787.019 237, 788.491 231.500 C 789.962 226, 791.989 218.350, 792.995 214.500 C 794 210.650, 795.816 203.900, 797.029 199.500 C 798.242 195.100, 799.579 190.150, 800 188.500 C 800.421 186.850, 801.761 181.900, 802.979 177.500 C 806.634 164.285, 808.135 158.756, 809.493 153.500 C 810.203 150.750, 812.222 143.100, 813.979 136.500 C 815.737 129.900, 817.762 122.250, 818.481 119.500 C 819.199 116.750, 820.776 110.900, 821.986 106.500 C 824.353 97.892, 824.449 97.531, 828.394 82.500 C 829.838 77, 831.668 70.250, 832.462 67.500 C 833.255 64.750, 834.616 59.800, 835.486 56.500 C 836.356 53.200, 837.725 48.218, 838.529 45.429 C 843.080 29.628, 849.711 31, 768.796 31 C 696.321 31, 696.321 31, 695.021 33.750 M 877.251 32.250 C 876.704 32.938, 875.084 37.775, 873.651 43 C 872.218 48.225, 869.858 56.775, 868.406 62 C 865.391 72.847, 863.256 80.937, 862.072 86 C 861.622 87.925, 860.240 93.100, 859 97.500 C 857.760 101.900, 856.376 107.075, 855.924 109 C 855.472 110.925, 854.386 114.975, 853.510 118 C 852.633 121.025, 850.311 129.575, 848.348 137 C 845.222 148.825, 842.949 157.325, 837.521 177.500 C 836.781 180.250, 834.844 187.450, 833.217 193.500 C 831.589 199.550, 829.243 208.100, 828.002 212.500 C 826.761 216.900, 825.378 222.075, 824.928 224 C 823.525 229.998, 821.691 236.847, 815.287 260 C 814.450 263.025, 813.444 267.075, 813.051 269 C 812.658 270.925, 811.852 274.075, 811.260 276 C 809.154 282.850, 806.992 290.664, 803.927 302.500 C 802.217 309.100, 800.139 316.975, 799.309 320 C 798.478 323.025, 797.181 327.750, 796.427 330.500 C 795.672 333.250, 793.455 341.575, 791.500 349 C 789.545 356.425, 787.332 364.750, 786.583 367.500 C 785.834 370.250, 784.442 375.425, 783.491 379 C 782.540 382.575, 781.194 387.525, 780.500 390 C 779.806 392.475, 778.451 397.425, 777.488 401 C 773.747 414.891, 772.697 418.654, 771.373 422.928 C 768.033 433.701, 759.119 432.589, 844.138 432 C 924.396 431.444, 916.198 433.011, 919.958 417.500 C 921.006 413.173, 925.493 396.345, 929.023 383.500 C 930.232 379.100, 931.811 373.250, 932.532 370.500 C 933.253 367.750, 934.577 362.800, 935.474 359.500 C 936.371 356.200, 937.523 351.557, 938.035 349.183 C 938.546 346.809, 939.272 344.369, 939.648 343.760 C 940.024 343.152, 940.661 341.044, 941.063 339.077 C 941.465 337.110, 942.780 331.900, 943.983 327.500 C 945.187 323.100, 946.825 317.025, 947.624 314 C 948.422 310.975, 949.689 306.250, 950.440 303.500 C 952.297 296.699, 957.899 275.643, 959.487 269.500 C 960.198 266.750, 961.786 260.900, 963.017 256.500 C 964.247 252.100, 965.572 246.890, 965.961 244.923 C 966.350 242.956, 966.976 240.848, 967.352 240.240 C 967.728 239.631, 968.458 237.191, 968.975 234.817 C 969.922 230.463, 973.924 215.259, 978.008 200.500 C 979.225 196.100, 980.837 190.135, 981.591 187.245 C 982.344 184.355, 983.613 179.630, 984.409 176.745 C 985.205 173.860, 987.184 166.325, 988.805 160 C 994.324 138.470, 979.185 141, 1102.480 141 C 1196.100 141, 1210.136 141.190, 1210.626 142.467 C 1211.122 143.761, 1209.560 150.380, 1204.426 168.743 C 1202.288 176.391, 1200.341 183.628, 1198.439 191 C 1197.516 194.575, 1196.194 199.525, 1195.500 202 C 1194.806 204.475, 1193.532 209.200, 1192.669 212.500 C 1188.384 228.872, 1184.645 242.952, 1183.505 247 C 1181.956 252.506, 1180.452 258.114, 1173.988 282.500 C 1171.217 292.950, 1168.332 303.750, 1167.576 306.500 C 1164.797 316.605, 1160.777 331.541, 1158.425 340.500 C 1155.011 353.500, 1153.845 357.870, 1152.554 362.500 C 1151.787 365.250, 1150.395 370.425, 1149.461 374 C 1148.526 377.575, 1147.194 382.525, 1146.500 385 C 1145.806 387.475, 1144.484 392.425, 1143.561 396 C 1140.214 408.972, 1136.608 422.146, 1134.968 427.397 C 1134.470 428.990, 1134.300 430.677, 1134.591 431.147 C 1136.980 435.012, 1280.999 431.693, 1281.977 427.750 C 1282.557 425.412, 1283.456 421.925, 1283.976 420 C 1284.495 418.075, 1285.875 412.900, 1287.042 408.500 C 1288.208 404.100, 1289.790 398.250, 1290.557 395.500 C 1291.323 392.750, 1293.307 385.325, 1294.966 379 C 1298.159 366.827, 1300.430 358.385, 1302.500 351 C 1303.194 348.525, 1304.516 343.575, 1305.439 340 C 1306.361 336.425, 1307.729 331.250, 1308.478 328.500 C 1309.227 325.750, 1310.555 320.800, 1311.428 317.500 C 1312.301 314.200, 1314.369 306.550, 1316.023 300.500 C 1317.677 294.450, 1319.748 286.800, 1320.625 283.500 C 1321.503 280.200, 1322.824 275.250, 1323.561 272.500 C 1324.299 269.750, 1325.857 263.900, 1327.024 259.500 C 1328.191 255.100, 1329.756 249.250, 1330.502 246.500 C 1331.248 243.750, 1332.577 238.800, 1333.456 235.500 C 1334.335 232.200, 1335.691 227.250, 1336.469 224.500 C 1337.247 221.750, 1338.639 216.575, 1339.561 213 C 1340.484 209.425, 1341.806 204.475, 1342.500 202 C 1343.194 199.525, 1344.526 194.575, 1345.461 191 C 1346.395 187.425, 1347.773 182.250, 1348.522 179.500 C 1349.271 176.750, 1350.635 171.575, 1351.552 168 C 1353.416 160.736, 1355.324 153.596, 1357.496 145.756 C 1359.961 136.857, 1364.080 121.758, 1365.477 116.500 C 1366.207 113.750, 1368.243 106.100, 1370 99.500 C 1371.757 92.900, 1373.776 85.250, 1374.487 82.500 C 1375.198 79.750, 1376.786 73.900, 1378.017 69.500 C 1379.247 65.100, 1380.571 59.925, 1380.959 58 C 1381.347 56.075, 1382.169 52.925, 1382.787 51 C 1385.871 41.391, 1387 36.852, 1387 34.062 C 1387 30.716, 879.905 28.913, 877.251 32.250 M 1423.687 33.750 C 1422.936 35.263, 1421.293 40.550, 1420.036 45.500 C 1417.652 54.884, 1412.729 73.252, 1410.521 81 C 1409.816 83.475, 1408.474 88.425, 1407.539 92 C 1405.218 100.879, 1403.027 108.811, 1401.740 113 C 1401.148 114.925, 1400.337 118.075, 1399.938 120 C 1399.539 121.925, 1398.239 127.100, 1397.048 131.500 C 1392.955 146.623, 1392.184 149.524, 1389.728 159.061 C 1388.374 164.319, 1386.798 170.169, 1386.225 172.061 C 1383.696 180.417, 1381.821 187.149, 1379.559 196 C 1378.224 201.225, 1375.807 210.450, 1374.189 216.500 C 1372.571 222.550, 1369.809 232.900, 1368.051 239.500 C 1364.668 252.196, 1363.045 258.150, 1359.873 269.500 C 1358.797 273.350, 1357.534 278.075, 1357.065 280 C 1356.596 281.925, 1355.244 287.100, 1354.061 291.500 C 1352.877 295.900, 1350.864 303.577, 1349.587 308.561 C 1348.311 313.544, 1346.772 319.169, 1346.169 321.061 C 1345.565 322.952, 1343.472 330.575, 1341.518 338 C 1339.563 345.425, 1337.285 353.975, 1336.455 357 C 1334.745 363.236, 1333.952 366.197, 1330.967 377.500 C 1329.805 381.900, 1328.233 387.750, 1327.475 390.500 C 1326.716 393.250, 1325.449 397.975, 1324.658 401 C 1321.145 414.438, 1319.681 419.793, 1318.386 423.928 C 1316.670 429.411, 1316.632 431.681, 1318.250 432.143 C 1326.435 434.481, 1621.172 431.668, 1622.110 429.244 C 1627.347 415.698, 1631.757 411.952, 1648.994 406.405 C 1653.122 405.077, 1657.400 403.579, 1658.500 403.077 C 1659.600 402.575, 1662.075 401.635, 1664 400.987 C 1665.925 400.340, 1673.125 397.803, 1680 395.350 C 1686.875 392.897, 1696.325 389.581, 1701 387.982 C 1705.675 386.382, 1714 383.433, 1719.500 381.428 C 1725 379.423, 1730.850 377.421, 1732.500 376.978 C 1734.150 376.535, 1737.975 375.205, 1741 374.021 C 1744.025 372.838, 1749.650 370.793, 1753.500 369.476 C 1757.350 368.159, 1764.100 365.776, 1768.500 364.180 C 1772.900 362.583, 1780.100 360.052, 1784.500 358.556 C 1810.448 349.729, 1808.928 351.250, 1817.528 325.500 C 1818.952 321.238, 1828.155 295.186, 1830.599 288.500 C 1831.404 286.300, 1833.157 281.350, 1834.495 277.500 C 1835.833 273.650, 1837.807 268.025, 1838.881 265 C 1839.955 261.975, 1842.682 254.100, 1844.940 247.500 C 1847.199 240.900, 1849.458 234.600, 1849.961 233.500 C 1850.464 232.400, 1852.103 227.900, 1853.603 223.500 C 1855.103 219.100, 1857.854 211.225, 1859.717 206 C 1861.580 200.775, 1863.982 193.800, 1865.056 190.500 C 1866.130 187.200, 1867.517 183.518, 1868.137 182.317 C 1871.080 176.627, 1881.558 176.999, 1718.781 177.015 C 1631.234 177.024, 1568.907 177.406, 1568.067 177.937 C 1566.694 178.806, 1564.911 183.926, 1562.995 192.500 C 1562.503 194.700, 1561.222 199.650, 1560.149 203.500 C 1559.075 207.350, 1557.007 215, 1555.554 220.500 C 1554.101 226, 1552.482 231.850, 1551.956 233.500 C 1551.430 235.150, 1548.743 245.050, 1545.985 255.500 C 1543.226 265.950, 1540.208 276.860, 1539.279 279.745 C 1536.752 287.588, 1530.073 287.046, 1628.849 287.011 C 1728.149 286.976, 1720.385 286.383, 1718.183 293.824 C 1717.585 295.846, 1716.424 299.975, 1715.604 303 C 1712.226 315.463, 1710.621 320.567, 1709.702 321.763 C 1708.644 323.143, 1494.857 323.191, 1493.478 321.811 C 1492.850 321.183, 1493.441 318.528, 1497.556 303.500 C 1498.309 300.750, 1499.567 296.025, 1500.352 293 C 1501.137 289.975, 1502.786 283.900, 1504.017 279.500 C 1505.247 275.100, 1506.590 269.925, 1507 268 C 1507.410 266.075, 1508.756 260.900, 1509.990 256.500 C 1511.225 252.100, 1512.579 247.150, 1513 245.500 C 1513.421 243.850, 1514.768 238.900, 1515.993 234.500 C 1517.218 230.100, 1518.798 224.250, 1519.504 221.500 C 1520.209 218.750, 1522.202 211.325, 1523.932 205 C 1525.662 198.675, 1527.464 191.925, 1527.936 190 C 1528.408 188.075, 1529.789 182.900, 1531.004 178.500 C 1532.219 174.100, 1533.791 168.250, 1534.496 165.500 C 1537.636 153.262, 1540.166 144.558, 1541.079 142.853 C 1542.034 141.068, 1548.239 140.997, 1723.675 140.753 C 1883.923 140.530, 1905.373 140.324, 1906.054 139 C 1906.478 138.175, 1908.256 132.100, 1910.005 125.500 C 1911.754 118.900, 1913.765 111.475, 1914.473 109 C 1915.667 104.831, 1916.889 100.253, 1920.614 86 C 1921.405 82.975, 1922.684 78.250, 1923.456 75.500 C 1924.228 72.750, 1925.517 68.025, 1926.320 65 C 1929.577 52.729, 1931.359 46.209, 1932.997 40.573 C 1933.945 37.313, 1934.506 33.825, 1934.243 32.823 C 1933.302 29.223, 1425.476 30.145, 1423.687 33.750 M 266.397 141.765 C 265.103 142.628, 262.875 149.503, 260.489 160 C 259.551 164.125, 258.169 169.250, 257.418 171.388 C 256.667 173.526, 256.292 175.664, 256.585 176.138 C 258.270 178.865, 473.963 176.996, 474.564 174.250 C 474.896 172.738, 475.405 170.825, 475.696 170 C 477.325 165.375, 482.536 143.107, 482.214 142.142 C 481.780 140.840, 268.346 140.467, 266.397 141.765 M 1895.578 195.176 C 1894.195 199.573, 1884.691 226.926, 1883.826 229 C 1883.252 230.375, 1881.725 234.650, 1880.433 238.500 C 1879.140 242.350, 1876.692 249.325, 1874.992 254 C 1873.293 258.675, 1870.599 266.325, 1869.005 271 C 1867.412 275.675, 1865.146 281.975, 1863.968 285 C 1862.791 288.025, 1861.451 291.850, 1860.992 293.500 C 1860.533 295.150, 1858.748 300.325, 1857.025 305 C 1855.303 309.675, 1853.052 315.975, 1852.025 319 C 1850.997 322.025, 1848.048 330.350, 1845.471 337.500 C 1842.895 344.650, 1840.199 352.300, 1839.481 354.500 C 1837.575 360.344, 1835.513 364.041, 1831.634 368.572 C 1825.355 375.908, 1821.191 378.139, 1801 384.984 C 1792.145 387.986, 1768.606 396.287, 1766 397.326 C 1765.175 397.655, 1761.575 398.874, 1758 400.034 C 1754.425 401.194, 1750.600 402.549, 1749.500 403.044 C 1747.499 403.946, 1744.620 404.981, 1731.500 409.510 C 1727.650 410.839, 1720.225 413.444, 1715 415.298 C 1709.775 417.152, 1701.900 419.897, 1697.500 421.397 C 1693.100 422.897, 1688.600 424.513, 1687.500 424.988 C 1683.409 426.754, 1656.417 436, 1655.351 436 C 1650.865 436, 1652.107 440.370, 1657 441.801 C 1660.336 442.776, 1685.046 451.421, 1693.500 454.571 C 1695.700 455.391, 1700.650 457.135, 1704.500 458.446 C 1708.350 459.757, 1718.025 463.161, 1726 466.008 C 1733.975 468.856, 1742.300 471.785, 1744.500 472.517 C 1746.700 473.248, 1753 475.473, 1758.500 477.460 C 1764 479.447, 1773.675 482.838, 1780 484.995 C 1786.325 487.151, 1793.975 489.857, 1797 491.007 C 1800.025 492.157, 1805.710 494.165, 1809.634 495.469 C 1827.996 501.573, 1834.653 508.414, 1841.288 528 C 1842.685 532.125, 1845.233 539.325, 1846.950 544 C 1848.666 548.675, 1851.379 556.325, 1852.979 561 C 1856.911 572.494, 1864.561 594.148, 1865.344 596 C 1865.693 596.825, 1868.496 604.700, 1871.572 613.500 C 1874.649 622.300, 1879.416 635.800, 1882.166 643.500 C 1884.916 651.200, 1887.772 659.300, 1888.512 661.500 C 1896.570 685.441, 1898.357 688.009, 1900.818 679.183 C 1901.382 677.157, 1903.465 671, 1905.447 665.500 C 1907.428 660, 1910.137 652.350, 1911.467 648.500 C 1914.486 639.763, 1922.717 616.426, 1926.985 604.500 C 1928.757 599.550, 1930.801 593.700, 1931.528 591.500 C 1932.254 589.300, 1934.486 583, 1936.487 577.500 C 1938.488 572, 1941.211 564.350, 1942.538 560.500 C 1943.866 556.650, 1946.475 549.225, 1948.337 544 C 1950.198 538.775, 1953.124 530.519, 1954.839 525.654 C 1962.545 503.783, 1964.378 502.556, 2015.500 485.051 C 2022.100 482.792, 2028.400 480.536, 2029.500 480.040 C 2030.600 479.544, 2036.900 477.259, 2043.500 474.963 C 2050.100 472.667, 2061.800 468.567, 2069.500 465.853 C 2077.200 463.139, 2086.650 459.826, 2090.500 458.490 C 2094.350 457.154, 2099.300 455.399, 2101.500 454.588 C 2111.198 451.017, 2134.812 442.766, 2138 441.836 C 2145.516 439.642, 2144.281 437.513, 2133.500 434.075 C 2129.650 432.848, 2125.082 431.204, 2123.349 430.422 C 2121.616 429.640, 2119.838 429, 2119.399 429 C 2118.641 429, 2103.745 423.729, 2099.500 421.958 C 2098.400 421.499, 2093.900 419.897, 2089.500 418.397 C 2085.100 416.897, 2077.225 414.152, 2072 412.298 C 2066.775 410.444, 2059.350 407.842, 2055.500 406.516 C 2051.650 405.190, 2044 402.496, 2038.500 400.528 C 2033 398.561, 2025.350 395.873, 2021.500 394.555 C 2017.650 393.236, 2007.975 389.824, 2000 386.971 C 1992.025 384.118, 1983.925 381.258, 1982 380.615 C 1967.873 375.894, 1960.067 367.400, 1954.451 350.634 C 1953.137 346.710, 1951.404 341.700, 1950.599 339.500 C 1948.885 334.811, 1941.308 313.495, 1932.826 289.500 C 1929.521 280.150, 1925.942 270.025, 1924.873 267 C 1923.803 263.975, 1921.830 258.350, 1920.488 254.500 C 1919.147 250.650, 1916.439 243, 1914.472 237.500 C 1912.504 232, 1909.808 224.350, 1908.481 220.500 C 1899.666 194.944, 1897.183 190.071, 1895.578 195.176" stroke="none" fill="#080808" fill-rule="evenodd"/><path d="M 147.614 34.401 C 146.726 36.272, 146 38.442, 146 39.223 C 146 40.004, 145.376 42.636, 144.614 45.072 C 143.852 47.507, 142.452 52.425, 141.504 56 C 140.555 59.575, 139.166 64.750, 138.416 67.500 C 137.666 70.250, 135.639 77.900, 133.913 84.500 C 132.186 91.100, 129.917 99.650, 128.869 103.500 C 127.822 107.350, 126.245 113.200, 125.363 116.500 C 124.482 119.800, 123.194 124.525, 122.500 127 C 121.806 129.475, 120.474 134.425, 119.539 138 C 118.605 141.575, 117.223 146.750, 116.468 149.500 C 115.713 152.250, 114.449 156.975, 113.658 160 C 111.099 169.790, 107.474 183.229, 104.487 194 C 103.800 196.475, 102.531 201.200, 101.666 204.500 C 98.963 214.815, 92.987 237.251, 91.412 243 C 90.583 246.025, 89.498 250.075, 89 252 C 88.006 255.845, 86.141 262.757, 83.199 273.500 C 82.144 277.350, 80.503 283.425, 79.552 287 C 78.601 290.575, 77.163 295.975, 76.355 299 C 74.216 307.013, 72.449 313.640, 70.491 321 C 69.540 324.575, 68.194 329.525, 67.500 332 C 66.806 334.475, 65.484 339.425, 64.561 343 C 62.862 349.586, 61.211 355.752, 58.600 365.257 C 57.808 368.141, 56.386 373.425, 55.439 377 C 54.493 380.575, 52.860 386.650, 51.811 390.500 C 50.761 394.350, 49.490 399.075, 48.986 401 C 48.482 402.925, 46.467 410.316, 44.509 417.424 C 40.008 433.763, 31.591 432.052, 115.043 431.757 C 196.194 431.469, 186.790 435.152, 196.122 400 C 197.801 393.675, 199.784 386.250, 200.529 383.500 C 201.273 380.750, 202.774 375.125, 203.863 371 C 204.953 366.875, 207.055 359, 208.535 353.500 C 210.016 348, 211.824 341.250, 212.555 338.500 C 213.285 335.750, 214.849 329.900, 216.031 325.500 C 217.213 321.100, 218.769 315.250, 219.490 312.500 C 220.211 309.750, 221.527 305.025, 222.413 302 C 223.300 298.975, 224.307 294.925, 224.651 293 C 224.996 291.075, 225.720 288.938, 226.261 288.250 C 227.042 287.258, 264.721 287, 408.671 287 C 607.442 287, 593.847 287.760, 593.978 276.634 C 593.990 275.608, 594.642 272.683, 595.426 270.134 C 596.835 265.554, 598.328 260.181, 601.437 248.500 C 602.315 245.200, 604.184 238.225, 605.589 233 C 606.994 227.775, 608.736 221.250, 609.459 218.500 C 610.654 213.955, 611.911 209.274, 618.190 186 C 622.380 170.468, 623.074 167.875, 624.409 162.755 C 625.163 159.865, 626.772 153.900, 627.986 149.500 C 632.724 132.331, 636.181 119.347, 636.906 116 C 637.323 114.075, 638.160 110.925, 638.767 109 C 639.374 107.075, 640.628 102.575, 641.555 99 C 642.481 95.425, 643.806 90.475, 644.500 88 C 645.194 85.525, 646.540 80.575, 647.491 77 C 648.442 73.425, 649.891 68.025, 650.711 65 C 651.530 61.975, 652.809 57.250, 653.552 54.500 C 654.294 51.750, 655.882 46.038, 657.080 41.807 C 658.278 37.576, 658.989 33.413, 658.660 32.557 C 657.173 28.680, 149.459 30.513, 147.614 34.401 M 695.021 33.750 C 694.306 35.263, 693.358 38.075, 692.915 40 C 691.875 44.518, 689.786 52.466, 687 62.500 C 685.779 66.900, 684.202 72.750, 683.496 75.500 C 682.791 78.250, 681.303 83.875, 680.190 88 C 679.077 92.125, 677.014 99.775, 675.606 105 C 674.197 110.225, 671.633 119.675, 669.908 126 C 666.255 139.395, 664.879 144.558, 662.046 155.500 C 660.147 162.838, 658.153 170.265, 654.529 183.500 C 653.776 186.250, 652.390 191.425, 651.449 195 C 649.708 201.613, 647.732 208.904, 645.487 217 C 644.800 219.475, 643.460 224.425, 642.509 228 C 641.558 231.575, 640.166 236.750, 639.416 239.500 C 638.666 242.250, 636.651 249.900, 634.939 256.500 C 633.227 263.100, 631.029 271.425, 630.054 275 C 629.079 278.575, 627.489 284.425, 626.521 288 C 625.553 291.575, 624.194 296.525, 623.500 299 C 622.806 301.475, 621.474 306.425, 620.539 310 C 618.589 317.461, 616.214 326.144, 614.934 330.500 C 614.448 332.150, 612.715 338.675, 611.082 345 C 609.448 351.325, 607.370 359.200, 606.463 362.500 C 605.556 365.800, 603.564 373.225, 602.035 379 C 600.507 384.775, 598.041 394, 596.555 399.500 C 595.069 405, 593.174 412.200, 592.342 415.500 C 591.511 418.800, 590.175 423.484, 589.374 425.908 C 588.551 428.398, 588.294 430.694, 588.784 431.184 C 589.601 432.001, 733.926 432.407, 734.739 431.594 C 734.948 431.385, 736.261 426.778, 737.655 421.357 C 741.719 405.557, 745.083 392.953, 748.560 380.500 C 749.481 377.200, 750.604 372.925, 751.055 371 C 751.507 369.075, 752.814 364.350, 753.961 360.500 C 755.108 356.650, 756.324 351.925, 756.662 350 C 757.001 348.075, 757.678 345.719, 758.167 344.764 C 758.655 343.810, 759.437 341.110, 759.903 338.764 C 760.369 336.419, 761.756 330.900, 762.986 326.500 C 764.215 322.100, 765.863 316.025, 766.648 313 C 767.433 309.975, 768.690 305.250, 769.442 302.500 C 770.194 299.750, 771.939 293.225, 773.319 288 C 774.699 282.775, 776.815 274.900, 778.021 270.500 C 780.622 261.007, 782.533 253.926, 784.427 246.755 C 785.190 243.865, 787.019 237, 788.491 231.500 C 789.962 226, 791.989 218.350, 792.995 214.500 C 794 210.650, 795.816 203.900, 797.029 199.500 C 798.242 195.100, 799.579 190.150, 800 188.500 C 800.421 186.850, 801.761 181.900, 802.979 177.500 C 806.634 164.285, 808.135 158.756, 809.493 153.500 C 810.203 150.750, 812.222 143.100, 813.979 136.500 C 815.737 129.900, 817.762 122.250, 818.481 119.500 C 819.199 116.750, 820.776 110.900, 821.986 106.500 C 824.353 97.892, 824.449 97.531, 828.394 82.500 C 829.838 77, 831.668 70.250, 832.462 67.500 C 833.255 64.750, 834.616 59.800, 835.486 56.500 C 836.356 53.200, 837.725 48.218, 838.529 45.429 C 843.080 29.628, 849.711 31, 768.796 31 C 696.321 31, 696.321 31, 695.021 33.750 M 877.251 32.250 C 876.704 32.938, 875.084 37.775, 873.651 43 C 872.218 48.225, 869.858 56.775, 868.406 62 C 865.391 72.847, 863.256 80.937, 862.072 86 C 861.622 87.925, 860.240 93.100, 859 97.500 C 857.760 101.900, 856.376 107.075, 855.924 109 C 855.472 110.925, 854.386 114.975, 853.510 118 C 852.633 121.025, 850.311 129.575, 848.348 137 C 845.222 148.825, 842.949 157.325, 837.521 177.500 C 836.781 180.250, 834.844 187.450, 833.217 193.500 C 831.589 199.550, 829.243 208.100, 828.002 212.500 C 826.761 216.900, 825.378 222.075, 824.928 224 C 823.525 229.998, 821.691 236.847, 815.287 260 C 814.450 263.025, 813.444 267.075, 813.051 269 C 812.658 270.925, 811.852 274.075, 811.260 276 C 809.154 282.850, 806.992 290.664, 803.927 302.500 C 802.217 309.100, 800.139 316.975, 799.309 320 C 798.478 323.025, 797.181 327.750, 796.427 330.500 C 795.672 333.250, 793.455 341.575, 791.500 349 C 789.545 356.425, 787.332 364.750, 786.583 367.500 C 785.834 370.250, 784.442 375.425, 783.491 379 C 782.540 382.575, 781.194 387.525, 780.500 390 C 779.806 392.475, 778.451 397.425, 777.488 401 C 773.747 414.891, 772.697 418.654, 771.373 422.928 C 768.033 433.701, 759.119 432.589, 844.138 432 C 924.396 431.444, 916.198 433.011, 919.958 417.500 C 921.006 413.173, 925.493 396.345, 929.023 383.500 C 930.232 379.100, 931.811 373.250, 932.532 370.500 C 933.253 367.750, 934.577 362.800, 935.474 359.500 C 936.371 356.200, 937.523 351.557, 938.035 349.183 C 938.546 346.809, 939.272 344.369, 939.648 343.760 C 940.024 343.152, 940.661 341.044, 941.063 339.077 C 941.465 337.110, 942.780 331.900, 943.983 327.500 C 945.187 323.100, 946.825 317.025, 947.624 314 C 948.422 310.975, 949.689 306.250, 950.440 303.500 C 952.297 296.699, 957.899 275.643, 959.487 269.500 C 960.198 266.750, 961.786 260.900, 963.017 256.500 C 964.247 252.100, 965.572 246.890, 965.961 244.923 C 966.350 242.956, 966.976 240.848, 967.352 240.240 C 967.728 239.631, 968.458 237.191, 968.975 234.817 C 969.922 230.463, 973.924 215.259, 978.008 200.500 C 979.225 196.100, 980.837 190.135, 981.591 187.245 C 982.344 184.355, 983.613 179.630, 984.409 176.745 C 985.205 173.860, 987.184 166.325, 988.805 160 C 994.324 138.470, 979.185 141, 1102.480 141 C 1196.100 141, 1210.136 141.190, 1210.626 142.467 C 1211.122 143.761, 1209.560 150.380, 1204.426 168.743 C 1202.288 176.391, 1200.341 183.628, 1198.439 191 C 1197.516 194.575, 1196.194 199.525, 1195.500 202 C 1194.806 204.475, 1193.532 209.200, 1192.669 212.500 C 1188.384 228.872, 1184.645 242.952, 1183.505 247 C 1181.956 252.506, 1180.452 258.114, 1173.988 282.500 C 1171.217 292.950, 1168.332 303.750, 1167.576 306.500 C 1164.797 316.605, 1160.777 331.541, 1158.425 340.500 C 1155.011 353.500, 1153.845 357.870, 1152.554 362.500 C 1151.787 365.250, 1150.395 370.425, 1149.461 374 C 1148.526 377.575, 1147.194 382.525, 1146.500 385 C 1145.806 387.475, 1144.484 392.425, 1143.561 396 C 1140.214 408.972, 1136.608 422.146, 1134.968 427.397 C 1134.470 428.990, 1134.300 430.677, 1134.591 431.147 C 1136.980 435.012, 1280.999 431.693, 1281.977 427.750 C 1282.557 425.412, 1283.456 421.925, 1283.976 420 C 1284.495 418.075, 1285.875 412.900, 1287.042 408.500 C 1288.208 404.100, 1289.790 398.250, 1290.557 395.500 C 1291.323 392.750, 1293.307 385.325, 1294.966 379 C 1298.159 366.827, 1300.430 358.385, 1302.500 351 C 1303.194 348.525, 1304.516 343.575, 1305.439 340 C 1306.361 336.425, 1307.729 331.250, 1308.478 328.500 C 1309.227 325.750, 1310.555 320.800, 1311.428 317.500 C 1312.301 314.200, 1314.369 306.550, 1316.023 300.500 C 1317.677 294.450, 1319.748 286.800, 1320.625 283.500 C 1321.503 280.200, 1322.824 275.250, 1323.561 272.500 C 1324.299 269.750, 1325.857 263.900, 1327.024 259.500 C 1328.191 255.100, 1329.756 249.250, 1330.502 246.500 C 1331.248 243.750, 1332.577 238.800, 1333.456 235.500 C 1334.335 232.200, 1335.691 227.250, 1336.469 224.500 C 1337.247 221.750, 1338.639 216.575, 1339.561 213 C 1340.484 209.425, 1341.806 204.475, 1342.500 202 C 1343.194 199.525, 1344.526 194.575, 1345.461 191 C 1346.395 187.425, 1347.773 182.250, 1348.522 179.500 C 1349.271 176.750, 1350.635 171.575, 1351.552 168 C 1353.416 160.736, 1355.324 153.596, 1357.496 145.756 C 1359.961 136.857, 1364.080 121.758, 1365.477 116.500 C 1366.207 113.750, 1368.243 106.100, 1370 99.500 C 1371.757 92.900, 1373.776 85.250, 1374.487 82.500 C 1375.198 79.750, 1376.786 73.900, 1378.017 69.500 C 1379.247 65.100, 1380.571 59.925, 1380.959 58 C 1381.347 56.075, 1382.169 52.925, 1382.787 51 C 1385.871 41.391, 1387 36.852, 1387 34.062 C 1387 30.716, 879.905 28.913, 877.251 32.250 M 1423.687 33.750 C 1422.936 35.263, 1421.293 40.550, 1420.036 45.500 C 1417.652 54.884, 1412.729 73.252, 1410.521 81 C 1409.816 83.475, 1408.474 88.425, 1407.539 92 C 1405.218 100.879, 1403.027 108.811, 1401.740 113 C 1401.148 114.925, 1400.337 118.075, 1399.938 120 C 1399.539 121.925, 1398.239 127.100, 1397.048 131.500 C 1392.955 146.623, 1392.184 149.524, 1389.728 159.061 C 1388.374 164.319, 1386.798 170.169, 1386.225 172.061 C 1383.696 180.417, 1381.821 187.149, 1379.559 196 C 1378.224 201.225, 1375.807 210.450, 1374.189 216.500 C 1372.571 222.550, 1369.809 232.900, 1368.051 239.500 C 1364.668 252.196, 1363.045 258.150, 1359.873 269.500 C 1358.797 273.350, 1357.534 278.075, 1357.065 280 C 1356.596 281.925, 1355.244 287.100, 1354.061 291.500 C 1352.877 295.900, 1350.864 303.577, 1349.587 308.561 C 1348.311 313.544, 1346.772 319.169, 1346.169 321.061 C 1345.565 322.952, 1343.472 330.575, 1341.518 338 C 1339.563 345.425, 1337.285 353.975, 1336.455 357 C 1334.745 363.236, 1333.952 366.197, 1330.967 377.500 C 1329.805 381.900, 1328.233 387.750, 1327.475 390.500 C 1326.716 393.250, 1325.449 397.975, 1324.658 401 C 1321.145 414.438, 1319.681 419.793, 1318.386 423.928 C 1316.670 429.411, 1316.632 431.681, 1318.250 432.143 C 1326.435 434.481, 1621.172 431.668, 1622.110 429.244 C 1627.347 415.698, 1631.757 411.952, 1648.994 406.405 C 1653.122 405.077, 1657.400 403.579, 1658.500 403.077 C 1659.600 402.575, 1662.075 401.635, 1664 400.987 C 1665.925 400.340, 1673.125 397.803, 1680 395.350 C 1686.875 392.897, 1696.325 389.581, 1701 387.982 C 1705.675 386.382, 1714 383.433, 1719.500 381.428 C 1725 379.423, 1730.850 377.421, 1732.500 376.978 C 1734.150 376.535, 1737.975 375.205, 1741 374.021 C 1744.025 372.838, 1749.650 370.793, 1753.500 369.476 C 1757.350 368.159, 1764.100 365.776, 1768.500 364.180 C 1772.900 362.583, 1780.100 360.052, 1784.500 358.556 C 1810.448 349.729, 1808.928 351.250, 1817.528 325.500 C 1818.952 321.238, 1828.155 295.186, 1830.599 288.500 C 1831.404 286.300, 1833.157 281.350, 1834.495 277.500 C 1835.833 273.650, 1837.807 268.025, 1838.881 265 C 1839.955 261.975, 1842.682 254.100, 1844.940 247.500 C 1847.199 240.900, 1849.458 234.600, 1849.961 233.500 C 1850.464 232.400, 1852.103 227.900, 1853.603 223.500 C 1855.103 219.100, 1857.854 211.225, 1859.717 206 C 1861.580 200.775, 1863.982 193.800, 1865.056 190.500 C 1866.130 187.200, 1867.517 183.518, 1868.137 182.317 C 1871.080 176.627, 1881.558 176.999, 1718.781 177.015 C 1631.234 177.024, 1568.907 177.406, 1568.067 177.937 C 1566.694 178.806, 1564.911 183.926, 1562.995 192.500 C 1562.503 194.700, 1561.222 199.650, 1560.149 203.500 C 1559.075 207.350, 1557.007 215, 1555.554 220.500 C 1554.101 226, 1552.482 231.850, 1551.956 233.500 C 1551.430 235.150, 1548.743 245.050, 1545.985 255.500 C 1543.226 265.950, 1540.208 276.860, 1539.279 279.745 C 1536.752 287.588, 1530.073 287.046, 1628.849 287.011 C 1728.149 286.976, 1720.385 286.383, 1718.183 293.824 C 1717.585 295.846, 1716.424 299.975, 1715.604 303 C 1712.226 315.463, 1710.621 320.567, 1709.702 321.763 C 1708.644 323.143, 1494.857 323.191, 1493.478 321.811 C 1492.850 321.183, 1493.441 318.528, 1497.556 303.500 C 1498.309 300.750, 1499.567 296.025, 1500.352 293 C 1501.137 289.975, 1502.786 283.900, 1504.017 279.500 C 1505.247 275.100, 1506.590 269.925, 1507 268 C 1507.410 266.075, 1508.756 260.900, 1509.990 256.500 C 1511.225 252.100, 1512.579 247.150, 1513 245.500 C 1513.421 243.850, 1514.768 238.900, 1515.993 234.500 C 1517.218 230.100, 1518.798 224.250, 1519.504 221.500 C 1520.209 218.750, 1522.202 211.325, 1523.932 205 C 1525.662 198.675, 1527.464 191.925, 1527.936 190 C 1528.408 188.075, 1529.789 182.900, 1531.004 178.500 C 1532.219 174.100, 1533.791 168.250, 1534.496 165.500 C 1537.636 153.262, 1540.166 144.558, 1541.079 142.853 C 1542.034 141.068, 1548.239 140.997, 1723.675 140.753 C 1883.923 140.530, 1905.373 140.324, 1906.054 139 C 1906.478 138.175, 1908.256 132.100, 1910.005 125.500 C 1911.754 118.900, 1913.765 111.475, 1914.473 109 C 1915.667 104.831, 1916.889 100.253, 1920.614 86 C 1921.405 82.975, 1922.684 78.250, 1923.456 75.500 C 1924.228 72.750, 1925.517 68.025, 1926.320 65 C 1929.577 52.729, 1931.359 46.209, 1932.997 40.573 C 1933.945 37.313, 1934.506 33.825, 1934.243 32.823 C 1933.302 29.223, 1425.476 30.145, 1423.687 33.750 M 266.397 141.765 C 265.103 142.628, 262.875 149.503, 260.489 160 C 259.551 164.125, 258.169 169.250, 257.418 171.388 C 256.667 173.526, 256.292 175.664, 256.585 176.138 C 258.270 178.865, 473.963 176.996, 474.564 174.250 C 474.896 172.738, 475.405 170.825, 475.696 170 C 477.325 165.375, 482.536 143.107, 482.214 142.142 C 481.780 140.840, 268.346 140.467, 266.397 141.765 M 1895.578 195.176 C 1894.195 199.573, 1884.691 226.926, 1883.826 229 C 1883.252 230.375, 1881.725 234.650, 1880.433 238.500 C 1879.140 242.350, 1876.692 249.325, 1874.992 254 C 1873.293 258.675, 1870.599 266.325, 1869.005 271 C 1867.412 275.675, 1865.146 281.975, 1863.968 285 C 1862.791 288.025, 1861.451 291.850, 1860.992 293.500 C 1860.533 295.150, 1858.748 300.325, 1857.025 305 C 1855.303 309.675, 1853.052 315.975, 1852.025 319 C 1850.997 322.025, 1848.048 330.350, 1845.471 337.500 C 1842.895 344.650, 1840.199 352.300, 1839.481 354.500 C 1837.575 360.344, 1835.513 364.041, 1831.634 368.572 C 1825.355 375.908, 1821.191 378.139, 1801 384.984 C 1792.145 387.986, 1768.606 396.287, 1766 397.326 C 1765.175 397.655, 1761.575 398.874, 1758 400.034 C 1754.425 401.194, 1750.600 402.549, 1749.500 403.044 C 1747.499 403.946, 1744.620 404.981, 1731.500 409.510 C 1727.650 410.839, 1720.225 413.444, 1715 415.298 C 1709.775 417.152, 1701.900 419.897, 1697.500 421.397 C 1693.100 422.897, 1688.600 424.513, 1687.500 424.988 C 1683.409 426.754, 1656.417 436, 1655.351 436 C 1650.865 436, 1652.107 440.370, 1657 441.801 C 1660.336 442.776, 1685.046 451.421, 1693.500 454.571 C 1695.700 455.391, 1700.650 457.135, 1704.500 458.446 C 1708.350 459.757, 1718.025 463.161, 1726 466.008 C 1733.975 468.856, 1742.300 471.785, 1744.500 472.517 C 1746.700 473.248, 1753 475.473, 1758.500 477.460 C 1764 479.447, 1773.675 482.838, 1780 484.995 C 1786.325 487.151, 1793.975 489.857, 1797 491.007 C 1800.025 492.157, 1805.710 494.165, 1809.634 495.469 C 1827.996 501.573, 1834.653 508.414, 1841.288 528 C 1842.685 532.125, 1845.233 539.325, 1846.950 544 C 1848.666 548.675, 1851.379 556.325, 1852.979 561 C 1856.911 572.494, 1864.561 594.148, 1865.344 596 C 1865.693 596.825, 1868.496 604.700, 1871.572 613.500 C 1874.649 622.300, 1879.416 635.800, 1882.166 643.500 C 1884.916 651.200, 1887.772 659.300, 1888.512 661.500 C 1896.570 685.441, 1898.357 688.009, 1900.818 679.183 C 1901.382 677.157, 1903.465 671, 1905.447 665.500 C 1907.428 660, 1910.137 652.350, 1911.467 648.500 C 1914.486 639.763, 1922.717 616.426, 1926.985 604.500 C 1928.757 599.550, 1930.801 593.700, 1931.528 591.500 C 1932.254 589.300, 1934.486 583, 1936.487 577.500 C 1938.488 572, 1941.211 564.350, 1942.538 560.500 C 1943.866 556.650, 1946.475 549.225, 1948.337 544 C 1950.198 538.775, 1953.124 530.519, 1954.839 525.654 C 1962.545 503.783, 1964.378 502.556, 2015.500 485.051 C 2022.100 482.792, 2028.400 480.536, 2029.500 480.040 C 2030.600 479.544, 2036.900 477.259, 2043.500 474.963 C 2050.100 472.667, 2061.800 468.567, 2069.500 465.853 C 2077.200 463.139, 2086.650 459.826, 2090.500 458.490 C 2094.350 457.154, 2099.300 455.399, 2101.500 454.588 C 2111.198 451.017, 2134.812 442.766, 2138 441.836 C 2145.516 439.642, 2144.281 437.513, 2133.500 434.075 C 2129.650 432.848, 2125.082 431.204, 2123.349 430.422 C 2121.616 429.640, 2119.838 429, 2119.399 429 C 2118.641 429, 2103.745 423.729, 2099.500 421.958 C 2098.400 421.499, 2093.900 419.897, 2089.500 418.397 C 2085.100 416.897, 2077.225 414.152, 2072 412.298 C 2066.775 410.444, 2059.350 407.842, 2055.500 406.516 C 2051.650 405.190, 2044 402.496, 2038.500 400.528 C 2033 398.561, 2025.350 395.873, 2021.500 394.555 C 2017.650 393.236, 2007.975 389.824, 2000 386.971 C 1992.025 384.118, 1983.925 381.258, 1982 380.615 C 1967.873 375.894, 1960.067 367.400, 1954.451 350.634 C 1953.137 346.710, 1951.404 341.700, 1950.599 339.500 C 1948.885 334.811, 1941.308 313.495, 1932.826 289.500 C 1929.521 280.150, 1925.942 270.025, 1924.873 267 C 1923.803 263.975, 1921.830 258.350, 1920.488 254.500 C 1919.147 250.650, 1916.439 243, 1914.472 237.500 C 1912.504 232, 1909.808 224.350, 1908.481 220.500 C 1899.666 194.944, 1897.183 190.071, 1895.578 195.176" stroke="none" fill="#f9f9f9" fill-rule="evenodd"/></svg>